<svg width="112" height="30" viewBox="0 0 112 30" fill="none" xmlns="http://www.w3.org/2000/svg">
<path d="M12.6295 7.60752L6.12369 10.6827L6.08984 10.6658V10.0977C6.08984 9.24182 6.63864 8.44885 7.53316 8.00642L14.022 4.93848V5.57914C14.0003 6.40597 13.4901 7.16509 12.6391 7.6051L12.6319 7.60993L12.6295 7.60752Z" fill="#2A410E"/>
<path d="M14.0196 24.4203V25.0586L7.53072 21.9906C6.6362 21.5482 6.0874 20.7552 6.0874 19.8994V19.2998L12.627 22.3919L12.6343 22.3968C13.4853 22.8343 13.9978 23.5935 14.0172 24.4227L14.0196 24.4203Z" fill="#2A410E"/>
<path d="M21.9182 11.2895L14.663 14.7177L7.41016 11.2895L14.663 7.86133L21.9182 11.2895Z" fill="#2A410E"/>
<path d="M20.3442 13.5706L21.9713 12.8066V14.1412C21.4297 14.395 20.8858 14.6489 20.3442 14.9051V13.573V13.5706Z" fill="#2A410E"/>
<path d="M23.2378 10.0977V10.6658L23.2016 10.6827L16.7175 7.61719L16.6934 7.6051C15.8375 7.17718 15.3274 6.4108 15.3057 5.59365V4.93848L21.78 7.99917C22.6866 8.44643 23.2378 9.23699 23.2378 10.0977Z" fill="#2A410E"/>
<path d="M15.3037 25.0605V24.4053C15.3279 23.5882 15.838 22.8218 16.6938 22.3939L16.718 22.3818L23.2359 19.3018V19.9013C23.2359 20.762 22.6846 21.5526 21.778 21.9998L15.3013 25.0605H15.3037Z" fill="#2A410E"/>
<path d="M25.1335 0.335938H4.19455C1.87848 0.335938 0 2.21442 0 4.53049V25.4694C0 27.7855 1.87848 29.664 4.19455 29.664H25.1335C27.4495 29.664 29.328 27.7855 29.328 25.4694V4.53049C29.328 2.21442 27.4495 0.335938 25.1335 0.335938ZM24.5218 13.4152C24.5218 14.0607 24.1205 14.6579 23.4556 15.0036L15.3035 18.8572V21.8357L24.5218 17.4792V20.8348C24.5218 21.4804 24.1205 22.0775 23.4556 22.4232L14.6628 26.5815L5.86996 22.4232C5.20511 22.0775 4.80379 21.4804 4.80379 20.8348V17.4792L14.0197 21.8382V18.8597L5.86754 15.006C5.2027 14.6603 4.80137 14.0631 4.80137 13.4176V9.16988C4.80137 8.52438 5.20028 7.92723 5.86754 7.58151L14.6628 3.42081L23.4556 7.5791C24.1205 7.92723 24.5218 8.52196 24.5218 9.16746V13.4152Z" fill="#2A410E"/>
<path d="M41.73 29.663C40.4994 29.663 39.4066 29.3923 38.4493 28.8531C37.4919 28.314 36.74 27.5718 36.1961 26.6241C35.6497 25.6788 35.3789 24.5957 35.3789 23.3772C35.3789 22.1588 35.6521 21.0418 36.1961 20.0966C36.74 19.1513 37.4919 18.4091 38.4493 17.8675C39.4066 17.3284 40.4994 17.0576 41.73 17.0576C42.4383 17.0576 43.1032 17.1688 43.7221 17.3888C44.3434 17.6088 44.9019 17.9086 45.4023 18.2858C45.9003 18.6629 46.3065 19.1005 46.6208 19.6009L44.9841 20.6454C44.7641 20.3093 44.4788 20.0071 44.1307 19.7412C43.7825 19.4752 43.403 19.2673 42.9895 19.1223C42.5785 18.9772 42.1579 18.9047 41.7275 18.9047C40.8911 18.9047 40.1513 19.0957 39.5082 19.4801C38.8651 19.8645 38.3574 20.3891 37.9851 21.0563C37.6128 21.7236 37.429 22.4972 37.429 23.3797C37.429 24.2621 37.6128 25.0043 37.9778 25.6764C38.3429 26.3485 38.853 26.8779 39.5106 27.2599C40.1658 27.6419 40.9225 27.8353 41.7832 27.8353C42.4553 27.8353 43.0597 27.6951 43.5939 27.4171C44.1282 27.139 44.5489 26.7498 44.8559 26.2518C45.163 25.7538 45.3177 25.1784 45.3177 24.528L47.2494 24.2839C47.2494 25.3863 47.0149 26.3412 46.5434 27.1463C46.0744 27.9538 45.4241 28.5727 44.5948 29.0079C43.7656 29.443 42.8106 29.6606 41.7324 29.6606L41.73 29.663ZM42.3924 24.6852V23.0485H47.2494V24.4072L46.1711 24.6852H42.3948H42.3924Z" fill="#2A410E"/>
<path d="M48.833 29.4545V20.7511H50.7816V29.4545H48.833ZM50.1216 24.8248C50.1216 23.8843 50.3005 23.1131 50.6607 22.5087C51.0209 21.9043 51.4875 21.4546 52.0629 21.1597C52.6383 20.8647 53.2379 20.7148 53.8641 20.7148V22.5764C53.3298 22.5764 52.8293 22.6489 52.3579 22.794C51.8889 22.939 51.5069 23.1736 51.2168 23.4999C50.9267 23.8239 50.7816 24.2542 50.7816 24.7885L50.1192 24.8224L50.1216 24.8248Z" fill="#2A410E"/>
<path d="M59.0332 29.6622C58.187 29.6622 57.4351 29.4688 56.78 29.0795C56.1248 28.6903 55.6074 28.1536 55.2303 27.4694C54.8531 26.7852 54.6646 25.9947 54.6646 25.1026C54.6646 24.2105 54.8555 23.4199 55.2399 22.7357C55.6243 22.0516 56.1465 21.5148 56.8162 21.1256C57.4835 20.7364 58.2474 20.543 59.1057 20.543C59.8842 20.543 60.5853 20.7436 61.2114 21.1425C61.8376 21.5439 62.3332 22.1193 62.7007 22.8735C63.0657 23.6278 63.2495 24.5272 63.2495 25.5716H56.4076L56.6687 25.3274C56.6687 25.8617 56.7848 26.3235 57.0169 26.7103C57.249 27.0995 57.556 27.3969 57.9404 27.6072C58.3224 27.8151 58.7455 27.9215 59.2121 27.9215C59.7464 27.9215 60.1864 27.803 60.5345 27.5637C60.8826 27.3268 61.1558 27.0149 61.3517 26.6329L63.0754 27.363C62.8312 27.8272 62.5218 28.2334 62.1446 28.5815C61.7675 28.9297 61.3202 29.1956 60.8053 29.3817C60.2879 29.5679 59.7004 29.6598 59.038 29.6598L59.0332 29.6622ZM56.7872 24.3193L56.5092 24.0751H61.4169L61.1558 24.3193C61.1558 23.843 61.0519 23.4514 60.8415 23.1443C60.6336 22.8373 60.3677 22.6052 60.0486 22.448C59.7294 22.2909 59.3958 22.2135 59.0477 22.2135C58.6995 22.2135 58.3514 22.2909 58.0033 22.448C57.6551 22.6052 57.365 22.8373 57.1329 23.1443C56.9008 23.4514 56.7848 23.843 56.7848 24.3193H56.7872Z" fill="#2A410E"/>
<path d="M68.6235 29.6622C67.7773 29.6622 67.0255 29.4688 66.3703 29.0795C65.7151 28.6903 65.1977 28.1536 64.8206 27.4694C64.4435 26.7852 64.2549 25.9947 64.2549 25.1026C64.2549 24.2105 64.4459 23.4199 64.8303 22.7357C65.2147 22.0516 65.7369 21.5148 66.4066 21.1256C67.0738 20.7364 67.8378 20.543 68.696 20.543C69.4745 20.543 70.1756 20.7436 70.8018 21.1425C71.4279 21.5439 71.9235 22.1193 72.291 22.8735C72.6561 23.6278 72.8398 24.5272 72.8398 25.5716H65.998L66.2591 25.3274C66.2591 25.8617 66.3751 26.3235 66.6072 26.7103C66.8393 27.0995 67.1463 27.3969 67.5307 27.6072C67.9127 27.8151 68.3358 27.9215 68.8024 27.9215C69.3367 27.9215 69.7767 27.803 70.1248 27.5637C70.473 27.3268 70.7462 27.0149 70.942 26.6329L72.6657 27.363C72.4216 27.8272 72.1121 28.2334 71.735 28.5815C71.3578 28.9297 70.9106 29.1956 70.3956 29.3817C69.8782 29.5679 69.2908 29.6598 68.6283 29.6598L68.6235 29.6622ZM66.3775 24.3193L66.0995 24.0751H71.0073L70.7462 24.3193C70.7462 23.843 70.6422 23.4514 70.4319 23.1443C70.224 22.8373 69.958 22.6052 69.6389 22.448C69.3198 22.2909 68.9861 22.2135 68.638 22.2135C68.2899 22.2135 67.9417 22.2909 67.5936 22.448C67.2455 22.6052 66.9554 22.8373 66.7233 23.1443C66.4912 23.4514 66.3751 23.843 66.3751 24.3193H66.3775Z" fill="#2A410E"/>
<path d="M74.3345 29.4557V20.7523H76.1622L76.2831 22.3528V29.4557H74.3345ZM80.2359 25.0001C80.2359 24.3038 80.1585 23.7671 80.0014 23.3899C79.8442 23.0128 79.6242 22.7493 79.3389 22.597C79.0536 22.4471 78.72 22.3697 78.338 22.3697C77.6877 22.3576 77.1824 22.5728 76.8246 23.0128C76.4644 23.4552 76.2855 24.0862 76.2855 24.9106H75.5554C75.5554 23.9943 75.6883 23.2086 75.9567 22.551C76.2226 21.8959 76.607 21.3954 77.1051 21.0545C77.6031 20.7112 78.1954 20.542 78.8796 20.542C79.5638 20.542 80.1706 20.6822 80.6638 20.9602C81.157 21.2383 81.5341 21.671 81.7952 22.2561C82.0563 22.8411 82.1869 23.6051 82.1869 24.5456V24.9976H80.2383L80.2359 25.0001ZM80.2359 29.4557V25.0001H82.1845V29.4557H80.2359Z" fill="#2A410E"/>
<path d="M84.1494 29.4543V17.2695H86.098V27.8345L85.9941 29.4543H84.1494ZM88.8492 29.6622C88.1191 29.6622 87.4881 29.4736 86.9611 29.0965C86.4341 28.7193 86.0303 28.1899 85.7523 27.5033C85.4743 26.8191 85.334 26.0189 85.334 25.1002C85.334 24.1815 85.4743 23.3692 85.7523 22.6898C86.0303 22.0105 86.4341 21.4834 86.9611 21.1063C87.4881 20.7291 88.1191 20.5406 88.8492 20.5406C89.6374 20.5406 90.3264 20.7291 90.9115 21.1063C91.4965 21.4834 91.9559 22.0105 92.2871 22.6898C92.6183 23.3692 92.7827 24.1718 92.7827 25.1002C92.7827 26.0285 92.6183 26.8167 92.2871 27.5033C91.9559 28.1875 91.4989 28.7193 90.9115 29.0965C90.3264 29.4736 89.6374 29.6622 88.8492 29.6622ZM88.3609 27.8877C88.8251 27.8877 89.2361 27.7692 89.5963 27.5299C89.9565 27.2929 90.2418 26.9641 90.457 26.5459C90.6721 26.1277 90.7785 25.6465 90.7785 25.1002C90.7785 24.5538 90.677 24.0727 90.4739 23.6544C90.2708 23.2362 89.9904 22.9122 89.6301 22.6801C89.2699 22.448 88.8517 22.332 88.3778 22.332C87.9354 22.332 87.5413 22.448 87.1932 22.6801C86.845 22.9122 86.5743 23.2362 86.3833 23.6544C86.1923 24.0727 86.0956 24.5538 86.0956 25.1002C86.0956 25.6465 86.1923 26.1277 86.3833 26.5459C86.5743 26.9641 86.8426 27.2905 87.1835 27.5299C87.5268 27.7668 87.9185 27.8877 88.3585 27.8877H88.3609Z" fill="#2A410E"/>
<path d="M103.438 29.4553L107.006 24.4775L109.496 20.752H111.793L108.398 25.5557L105.77 29.4553H103.438ZM109.687 29.4553L107.11 25.5557L103.662 20.752H105.959L108.466 24.4775L112.001 29.4553H109.685H109.687Z" fill="#2A410E"/>
<path fill-rule="evenodd" clip-rule="evenodd" d="M100.771 20.5381H95.9331C94.8089 20.5381 93.8975 21.4495 93.8975 22.5737V27.6193C93.8975 28.7459 94.8089 29.6573 95.9331 29.6573H100.771C101.897 29.6573 102.809 28.7459 102.809 27.6193V22.5737C102.809 21.4495 101.897 20.5381 100.771 20.5381ZM101.063 27.1212C101.063 27.5371 100.727 27.8731 100.314 27.8731H96.3924C95.9766 27.8731 95.643 27.5371 95.643 27.1212V23.0742C95.643 22.6583 95.9766 22.3223 96.3924 22.3223H100.314C100.727 22.3223 101.063 22.6583 101.063 23.0742V27.1212Z" fill="#2A410E"/>
<path d="M35.3789 12.9728V0.788086H37.3976V12.9728H35.3789ZM36.9624 7.64684V5.80221H44.3434V7.64684H36.9624ZM43.5238 12.9728V0.788086H45.5425V12.9728H43.5238Z" fill="#2A410E"/>
<path fill-rule="evenodd" clip-rule="evenodd" d="M49.6059 2.75977H48.5567C48.3125 2.75977 48.1143 2.95317 48.1143 3.19252V4.26352C48.1143 4.50286 48.3125 4.69627 48.5567 4.69627H49.6059C49.8501 4.69627 50.0483 4.50286 50.0483 4.26352V3.19252C50.0483 2.95317 49.8501 2.75977 49.6059 2.75977Z" fill="#2A410E"/>
<path d="M50.0483 5.90625H48.1143V12.9729H50.0483V5.90625Z" fill="#2A410E"/>
<path d="M57.0088 12.9728V0.788086H61.0293C61.8657 0.788086 62.5862 0.916219 63.1954 1.17007C63.8047 1.42633 64.2761 1.8059 64.6146 2.31118C64.9506 2.81646 65.1198 3.44504 65.1198 4.19933C65.1198 4.72154 64.9941 5.19055 64.7451 5.6088C64.4961 6.02705 64.1456 6.37518 63.691 6.65321C64.2834 6.94332 64.7354 7.33255 65.0497 7.81849C65.364 8.30685 65.5188 8.88708 65.5188 9.55917C65.5188 10.2796 65.3568 10.8937 65.0304 11.4038C64.7064 11.9139 64.2471 12.3032 63.6548 12.5691C63.0625 12.835 62.3614 12.9704 61.549 12.9704H57.0063L57.0088 12.9728ZM58.9936 5.90617H61.2033C61.7835 5.90617 62.2381 5.75144 62.5693 5.4444C62.9005 5.13736 63.0649 4.70945 63.0649 4.16549C63.0649 3.62152 62.8763 3.18152 62.4992 2.88657C62.122 2.59162 61.5974 2.44173 60.9229 2.44173H58.9912V5.90617H58.9936ZM58.9936 11.162H61.3967C62.035 11.162 62.5403 11.0049 62.9102 10.693C63.28 10.3812 63.4662 9.95566 63.4662 9.42137C63.4662 8.84114 63.2607 8.38905 62.8473 8.06267C62.4363 7.73871 61.8585 7.57432 61.1163 7.57432H58.9936V11.1596V11.162Z" fill="#2A410E"/>
</svg>
